<svg width="30" height="27" viewBox="0 0 30 27" fill="none" xmlns="http://www.w3.org/2000/svg">
<path d="M20.0002 25.3334V4.00004C20.0002 3.2928 19.7192 2.61452 19.2191 2.11442C18.719 1.61433 18.0407 1.33337 17.3335 1.33337H12.0002C11.2929 1.33337 10.6146 1.61433 10.1145 2.11442C9.61445 2.61452 9.3335 3.2928 9.3335 4.00004V25.3334M4.00016 6.66671H25.3335C26.8063 6.66671 28.0002 7.86061 28.0002 9.33337V22.6667C28.0002 24.1395 26.8063 25.3334 25.3335 25.3334H4.00016C2.5274 25.3334 1.3335 24.1395 1.3335 22.6667V9.33337C1.3335 7.86061 2.5274 6.66671 4.00016 6.66671Z" stroke="#0F3D3E" stroke-width="2.66667" stroke-linecap="round" stroke-linejoin="round"/>
</svg>
