<svg width="32" height="32" viewBox="0 0 32 32" fill="none" xmlns="http://www.w3.org/2000/svg">
<path d="M26.6664 4.00005V9.33338M29.3331 6.66671H23.9998M5.33309 22.6667V25.3334M6.66642 24H3.99976M13.2491 20.6667C13.1301 20.2053 12.8895 19.7842 12.5526 19.4472C12.2156 19.1103 11.7945 18.8698 11.3331 18.7507L3.15309 16.6414C3.01353 16.6018 2.8907 16.5177 2.80324 16.402C2.71578 16.2862 2.66846 16.1451 2.66846 16C2.66846 15.855 2.71578 15.7139 2.80324 15.5981C2.8907 15.4824 3.01353 15.3983 3.15309 15.3587L11.3331 13.248C11.7944 13.1291 12.2153 12.8888 12.5523 12.5521C12.8892 12.2154 13.1298 11.7946 13.2491 11.3334L15.3584 3.15338C15.3976 3.01327 15.4816 2.88984 15.5975 2.80191C15.7134 2.71398 15.8549 2.66638 16.0004 2.66638C16.1459 2.66638 16.2874 2.71398 16.4033 2.80191C16.5192 2.88984 16.6032 3.01327 16.6424 3.15338L18.7504 11.3334C18.8695 11.7948 19.11 12.2159 19.4469 12.5529C19.7839 12.8898 20.205 13.1303 20.6664 13.2494L28.8464 15.3574C28.9871 15.3962 29.1111 15.4801 29.1995 15.5961C29.2879 15.7122 29.3358 15.8541 29.3358 16C29.3358 16.146 29.2879 16.2879 29.1995 16.4039C29.1111 16.52 28.9871 16.6039 28.8464 16.6427L20.6664 18.7507C20.205 18.8698 19.7839 19.1103 19.4469 19.4472C19.11 19.7842 18.8695 20.2053 18.7504 20.6667L16.6411 28.8467C16.6019 28.9868 16.5179 29.1103 16.402 29.1982C16.2861 29.2861 16.1446 29.3337 15.9991 29.3337C15.8536 29.3337 15.7121 29.2861 15.5962 29.1982C15.4803 29.1103 15.3963 28.9868 15.3571 28.8467L13.2491 20.6667Z" stroke="#F7F6F3" stroke-width="2.66667" stroke-linecap="round" stroke-linejoin="round"/>
</svg>
