<svg width="32" height="32" viewBox="0 0 32 32" fill="none" xmlns="http://www.w3.org/2000/svg">
<path d="M26.6668 13.3333C26.6668 19.9906 19.2815 26.924 16.8015 29.0653C16.5705 29.239 16.2892 29.333 16.0002 29.333C15.7111 29.333 15.4299 29.239 15.1988 29.0653C12.7188 26.924 5.3335 19.9906 5.3335 13.3333C5.3335 10.5043 6.4573 7.79121 8.45769 5.79082C10.4581 3.79043 13.1712 2.66663 16.0002 2.66663C18.8291 2.66663 21.5422 3.79043 23.5426 5.79082C25.543 7.79121 26.6668 10.5043 26.6668 13.3333Z" stroke="#0F3D3E" stroke-width="2.66667" stroke-linecap="round" stroke-linejoin="round"/>
<path d="M16.0002 17.3333C18.2093 17.3333 20.0002 15.5424 20.0002 13.3333C20.0002 11.1242 18.2093 9.33329 16.0002 9.33329C13.791 9.33329 12.0002 11.1242 12.0002 13.3333C12.0002 15.5424 13.791 17.3333 16.0002 17.3333Z" stroke="#0F3D3E" stroke-width="2.66667" stroke-linecap="round" stroke-linejoin="round"/>
</svg>
