<svg width="30" height="30" viewBox="0 0 30 30" fill="none" xmlns="http://www.w3.org/2000/svg">
<path d="M1.3335 14.6672C1.33287 14.9222 1.40539 15.1721 1.54246 15.3871C1.67953 15.6022 1.87539 15.7734 2.10683 15.8805L13.5735 21.0939C13.9191 21.2503 14.2941 21.3313 14.6735 21.3313C15.0529 21.3313 15.4279 21.2503 15.7735 21.0939L27.2135 15.8939C27.4495 15.7878 27.6496 15.6153 27.7892 15.3975C27.9289 15.1797 28.0022 14.9259 28.0002 14.6672M1.3335 21.3339C1.33287 21.5889 1.40539 21.8387 1.54246 22.0538C1.67953 22.2688 1.87539 22.4401 2.10683 22.5472L13.5735 27.7605C13.9191 27.917 14.2941 27.998 14.6735 27.998C15.0529 27.998 15.4279 27.917 15.7735 27.7605L27.2135 22.5605C27.4495 22.4544 27.6496 22.282 27.7892 22.0642C27.9289 21.8463 28.0022 21.5926 28.0002 21.3339M15.7735 1.57385C15.4261 1.41538 15.0487 1.33337 14.6668 1.33337C14.285 1.33337 13.9076 1.41538 13.5602 1.57385L2.1335 6.77385C1.8969 6.87818 1.69574 7.04905 1.55452 7.26566C1.41329 7.48227 1.33811 7.73527 1.33811 7.99385C1.33811 8.25243 1.41329 8.50543 1.55452 8.72204C1.69574 8.93865 1.8969 9.10952 2.1335 9.21385L13.5735 14.4272C13.9209 14.5857 14.2983 14.6677 14.6802 14.6677C15.062 14.6677 15.4394 14.5857 15.7868 14.4272L27.2268 9.22718C27.4634 9.12286 27.6646 8.95199 27.8058 8.73538C27.947 8.51876 28.0222 8.26576 28.0222 8.00718C28.0222 7.7486 27.947 7.4956 27.8058 7.27899C27.6646 7.06238 27.4634 6.89151 27.2268 6.78718L15.7735 1.57385Z" stroke="#0F3D3E" stroke-width="2.66667" stroke-linecap="round" stroke-linejoin="round"/>
</svg>
