<svg width="32" height="32" viewBox="0 0 32 32" fill="none" xmlns="http://www.w3.org/2000/svg">
<path d="M18.6665 2.66663V7.99996C18.6665 8.7072 18.9475 9.38548 19.4476 9.88558C19.9477 10.3857 20.6259 10.6666 21.3332 10.6666H26.6665M5.6905 28C5.92398 28.4044 6.25955 28.7404 6.66366 28.9743C7.06776 29.2083 7.52622 29.3321 7.99317 29.3333H23.9998C24.7071 29.3333 25.3854 29.0523 25.8855 28.5522C26.3856 28.0521 26.6665 27.3739 26.6665 26.6666V9.33329L19.9998 2.66663H7.99984C7.29259 2.66663 6.61432 2.94758 6.11422 3.44767C5.61412 3.94777 5.33317 4.62605 5.33317 5.33329V9.33329M11.9998 24L9.99984 22M10.6665 18.6666C10.6665 20.8758 8.87564 22.6666 6.6665 22.6666C4.45737 22.6666 2.6665 20.8758 2.6665 18.6666C2.6665 16.4575 4.45737 14.6666 6.6665 14.6666C8.87564 14.6666 10.6665 16.4575 10.6665 18.6666Z" stroke="#0F3D3E" stroke-width="2.66667" stroke-linecap="round" stroke-linejoin="round"/>
</svg>
