<svg width="32" height="32" viewBox="0 0 32 32" fill="none" xmlns="http://www.w3.org/2000/svg">
<path d="M29.3332 16C29.3332 23.3638 23.3636 29.3333 15.9998 29.3333M29.3332 16C29.3332 8.63616 23.3636 2.66663 15.9998 2.66663M29.3332 16H2.6665M15.9998 29.3333C8.63604 29.3333 2.6665 23.3638 2.6665 16M15.9998 29.3333C12.5762 25.7384 10.6665 20.9643 10.6665 16C10.6665 11.0356 12.5762 6.2615 15.9998 2.66663M15.9998 29.3333C19.4235 25.7384 21.3332 20.9643 21.3332 16C21.3332 11.0356 19.4235 6.2615 15.9998 2.66663M2.6665 16C2.6665 8.63616 8.63604 2.66663 15.9998 2.66663" stroke="#0F3D3E" stroke-width="2.66667" stroke-linecap="round" stroke-linejoin="round"/>
</svg>
